<mxfile host="" modified="2020-05-28T07:07:24.758Z" agent="5.0 (Windows NT 10.0; Win64; x64) AppleWebKit/537.36 (KHTML, like Gecko) Code/1.45.1 Chrome/78.0.3904.130 Electron/7.2.4 Safari/537.36" etag="j_AwNP6NeHnqD8iIS6wm" version="13.1.3">
    <diagram id="6hGFLwfOUW9BJ-s0fimq" name="Page-1">
        <mxGraphModel dx="1304" dy="627" grid="1" gridSize="10" guides="1" tooltips="1" connect="1" arrows="1" fold="1" page="1" pageScale="1" pageWidth="827" pageHeight="1169" math="0" shadow="0">
            <root>
                <mxCell id="0"/>
                <mxCell id="1" parent="0"/>
                <mxCell id="2" value="" style="shape=image;verticalLabelPosition=bottom;labelBackgroundColor=#ffffff;verticalAlign=top;aspect=fixed;imageAspect=0;image=data:image/png,iVBORw0KGgoAAAANSUhEUgAAAwoAAAFpCAYAAAA8x9/8AAAgAElEQVR4Aey9C1xU1fr//+HijCJDXvBkeL8UooVoECpqQinYQbAUK9G+B7QCrbDjEcugPEKWmCVlYucgfH8CnhI5R8h/YhYYiqagIV7pIJgXvpaoxSg6o8D/tfbMntmz58IMDPdn+xpnX9Z61rPea89mPXs9z1o2Tz/9dAMAyP7yDfuijQgQASJABIgAESACRIAIEIEuTOBM3GNc7W27MAOqOhEgAkSACBABIkAEiAARIAJGCNjz5zdMqeZ36ZsIEAEiQASIABEgAkSACBCBLkpgprreNKLQRW8AqjYRIAJEgAgQASJABIgAETBFgAwFU3ToGhEgAkSACBABIkAEiAAR6KIEyFDoog1P1SYCRIAIEAEiQASIABEgAqYIkKFgig5dIwJEgAgQASJABIgAESACXZQAGQpdtOGp2kSACBABIkAEiAARIAJEwBQBMhRM0aFrRIAIEAEiQASIABEgAkSgixLQTI9qaf27SyXo2bMHJN3s0a2bPexsyeawlCGlJwLWIlBXX4979+5Dee8+bt2+A4VCaS3RJIcIEAEiQASIABHoogSaZCj07iVDLyfHLoqMqk0E2h8BZqjbSSVgBryTowN+/+MWbv4hb3+KkkZEgAgQASJABNqQwPAhLmaVXvFLlVnpWivRFJ8n8MU/UjB6zKMGizxz+hRefSUcBwqPGrze1JP2gwYNsiivS39nSCXdLMpDiYkAEWhdAr0ecESP7lJU/UoLKbYueSqNCBABIkAE2juBxowAc42J1qwnMxKYIWDIWOCNBHbN2putra0t2MecrfcDjmQkmAOK0hCBdkBAKu0GZjBYc2swIczUNRPZ6BIRIAJEgAgQASLQCAE2ksAbC8ww4DehkWBstIFP25Rv8ywEgDMQej0ga0oZlIcIEIE2ItD7ARkkVhwBtDFRD1PXTGSjS0SACBABIkAEiIAZBMTGQksbCUwls2MUZI4OZlSBkhABItDeCLDf7vUbf7Q3tUgfIkAEiAARIAJEwEICQmOBZTXkimShSJPJ7W/fvm0yAX+RzWxEGxEgAh2PgMS+ib9d5kvU3GECa8joeMhJYyJABIhApydgrh9/Y/EAnR5UB6+g2T0Ia7ovdHBmpD4R6FAEmmzkN9dIYJSsIaND0SZliQARIAJdgwAZAG3TzkJ3I6aBsQBna2lndoyCrQ39xbcWdJJDBFqTgJ2d2T9zlVotEZXcEjJbEyKVRQSIABEgAkSgjQkIjQTmgiR0Q2LXrLnJevUC+5g9omBp4XeDhxjN0j37F6zeZ9zwWD2dehVG4dEFItDSBIz/NJteckvIbLo2lJMIEAEiQASIQIciIDYSeOWFxoI14xXkv//OFdFihgJfAfomAkSACBABIkAEiAARIALthYC58RXtRV+mhykXI6GxYK0F19hoAtvIUGhPdwHpQgQ6EIG1H7wPGxsbvP3Wqg6kNalKBIgAESACXZlAR42taMwAYMZCY2ksaXcaUbCEFqUlAkRAj8C5c+f0ztEJIkAEiAARIAJEoPMQ6LAjCt8seRofnBU3RCC25C/DGHb6Yj4+/Xgz9pxRQgKgv8cLeOPdFzFGvVDt9ZzXMe8fNzBYcgPlN4HBI3wQ8toSzPboIxB6C6e3x+PT7SdwFYBSMhozX4vCG36DBWm0u/KSf2HDx9tw5IYEkj5e+FtCDKb0115vkb2rX2P5GmDV5lno2yIFkNC2IBDyYijGeYzFqpXROsWvXZeAn0pOIPNfGTrn6YAIEAEiQASIABEgAtYm0GENhWc2f4dnGI2SjZiS54sDfx2rZcM6z9FFmJmQgTcGMzMBkB/diIiXNmLVtmUaY8HjlQ3YEKTqySuu5uOLZWFY+0oqVvkxY+EWTn/8Kj6VROOj3R+CW5NaeRHfLHsVy2+lavJpCr2Vj8/WXELwtj1YzYyRW0X45uhVoH9LWwoaDWinExGY7DMJO7P+w9WINxaYkbAn91vMnfNsJ6opVYUIEAEiQASIABForwQ4Q+H+zV/aq35N0OsWDnycjCFvZeJptZHAhMieWIa1c8OwNvcivpirPyIg7e+LNxKu4tUlX+K/fkvw8JltWF3+ArZsHqsyEpgQyWA8kxCDM88l46eAGIxT2SAqHctP4Ps+IxCmHrGAoxee8WuC+pSFCACIem0pbt26zRkGPBBmJAT4z+Cu8efomwgQASJABIgAESACLUXAHvdu4soVudXlsylQTW0tNwXqWfxU5IMpCcJevEqTIR5euPG/5yE3YChwKQb7YKbjevxyA3A8cwL9/Z7Td+dxHAtvjwScLgfGjRbU0GMGwm4sx6c73bBq7mitccFGMw5uxKr/LcKtW0ooJb5YtXkJN6rB3J/W3noBM8u3IePoVfR/5TP8rc+/sfYfRbh6S4KZ736GBR6OAOde9CtmepxF5sGruHpDgqfe2oA3JgvdpFS6/F9ePFb/4yyUzK4ZvRir3/XFQwI1abfjEHjnLZXb0Z7cvdzKZcxI4M+1di1Y4LKxmISX/mehjjpubm4U4KxDhA6IABEgAkSACHRMAvb3b9XA+mYCYJOhmn/VEJaG0F7AtyYmVp/RjHUUrl7FL4NGIMRQwX0GYfCtW1wn2tBlgMUWAEolcOPieQyZbMhtyBF9+t/GT6wnrrONxoJ/p+KnTe9h3gwgNP4DLHhC1ZGXTV6GzyarEstzl2NV7lV8Nlcl+0w5sPbdL/A0ziA98FWs/ssX+GzbMuDGXry95Gv88uWL4FakOHsCync/wxevqNyaPn1pIw54rMEUoQ5nNmP1UX98+mUMpACu5yzH2hw3fTcpYR7ab9cEVOsc2oD9IjrKmocNDc34/bbr1iDliAARIAJEgAh0LQL2SkVLmAltCLFPHzx0qZALPtZ7k37jEi72HwsuhMCgijdw42JPDHEEHPs/iF8uXgWeEBsLt3Dj6oMYrP8yn4VMY9xrX2DP3CJsiQnF6lsZWO3XB4qL+cje9CX2sJGKGxdRMvlXLi1TYbTHCK5TD/RBn8GDMXOy2i2qT3889OtZ3OL1dJsBb14VRy88NfltfF8OnWDpX0oKcfFoISJe4DMB8LuhKUtwlnY7AAE+JoGNJLCNuR6xjY9Z4A5a6b9Vb7+jVxI/krDt/6XpXaMTRIAIEAEiQASIQMcn0GGDmY2il7jBY2wCDpQoMc5D1/3ol4OFGPnEC1zHXNMBFwo6sx/ZI32R4gjIPHxwdVMRrs8VzSZ0qwgHzvggRD/MQSupvxci/joLIZsKcd1vMDKWFcE7+QukMuOCC77WJtXd09VX95rukVLZjZvNSfcsMPovn2FDkEErRpyUjtsxgcRNn3OGgdjdiBkLPXv2pDiFdtx2pBoRIAJEgAgQgc5CwFYi5ebz6Sz1AXsz//Qr/jiyJh7fXdRW63pePFblemEBN6OR9jy/Jz/zNdauOYuwt/xV8QWjX8AbjpuxatMJrWvWrXLsik7A9Veew8N8Rv675GvsOsPe3qu2/ztzFhg9An1vXMQvkj7oz/Xdb+Gn3Hw+iWXf5YX4iRd/9WukH/XHFGGMBIAhHj64mJuP/7NMMqVuhwQOHCzkApeFMQlsnxkO7BptRIAIEAEiQASIABFoaQL29o5OkGm7wi1dXuvIH70EKQlf47OYYGxgaxooleg/eTHWbpuFIYKX9iX/WI6w7UpcvaHEYI9ZiNj8GcZpXsb3wZSEDDhueh8RM86A+SvdwGiEvpWBDerYA53KjHSD5OPlCD54g4U6oP8Ti/HRX0cDjoMR4bccbwTmo09/N4QH+AACA0ZHhqmDwX1wddOrCDtzA0rJWIQmLMMYQV24rKNfwkcBG7H6uRAoJRI4OnphwcZl8OZnYjIln661KwI7v9xuUB+h4WAwAZ0kAkSACBABIkAEiEAzCdjZ2XESbF544YUGNj1qwj+yTIocNljP499k+jYLZjapVQe9SIuqddCGaz9qV160/jgTmwmJbYbiF9pPzUkTIkAEiAARIAJEwFICgTOf5rJwMQr2vbl5dSyVQemJABHowgTIQOjCjU9VJwJEgAgQgU5NoK6ujqtfiwUzc1OgmkLYnClQTcmla0SACBABIkAEiAARIAJEgAg0m0CLGQrN1owEaAn0n4UNm7WHtEcEWpIAt2aDlQtoCZlWVpHEEQEiQASIABEgAiICtqJjg4d2dmYlM5iXThIBItD2BCz5DZtYCrHJFWkJmU1WhjISASJABIgAESACZhEwywKQSrqZJYwSEQEi0D4JSJrwG7bG+srWkNE+iZJWRIAIEAEiQAQ6PwGzDIWmdDI6PzqqIRHoOASk3Sw39q0xCmANGR2HMmlKBIgAESACRKBzEWjUULCxsYGsp0PnqjXVhgh0MQIyR/oNd7Emp+oSASJABIgAEWg2gUYNhV4POMLeXrXoQrNLIwFEgAi0CQH2G+79QGdbhb1NUFKhRIAIEAEiQAS6DAGThoJUKkEvJ1rWt8vcDVTRTk2AGf1SqeUuSJ0aClWOCBABIkAEiAARMErAvlevXgYvsk4FvYE0iIZOEoEOS8DlQWfc/F2O32tuddg6kOJEgAgQASJABIhA6xDQrKNgZ2uLbhJ7SLp1g6NDd7DRBNqIABHofAR695KhRw8pbtfehfLePdy9q+x8laQaEQEiQASIABEgAk0mYGenCjvQGAqDBz7YZGGUkQgQgY5FoLtUAvahjQgQASJABIgAESACxghoDAVjCeg8ESACRIAIEAEiQASIABEgAl2HQF1dHVdZk8HMXQcH1ZQIEAEiQASIABEgAkSACBABIQEyFIQ0aJ8IEAEiQASIABEgAkSACBABjgC5HnXiG4ENG927X4e6+jrU1zegoaGhE9eWqkYEiAARIAJEgAh0BQJsMWBbWxvY2dqhm70d+MDbrlD31q4jGQqtTbwVylPeuw+FUkmGQSuwpiKIABEgAkSACBCB1iXAXnzW1bFPPTd7HzMcpBIJJN2oW2vtliCi1ibahvLu3b8PhUKJ+tYYOWBl2Ni0YW2paCJABIgAESACRKDdEWiD/gEzHO4qFFAqldz0/t3sqXtrrfuCSFqLZBvLYUbCnbuK1tGCeTCRkdA6rKkUIkAEiAARIAIdiQDrH3D9hNZXmr0oZX0hm+42sLdXrQNgTS1uyf/Age92YVfOPijRAIcHZLBpuIMD+3/CI488gueeexbBwbPh4NDTmsW2qSwyFNoUv3UKv3+/rvWMBKYyDSRYp+FIChEgAkSACBCBzkigjfsJtXfvokd3Kaw1svDH77/jH0mb8FX6P1BbK8cfim544EEXjB41En179cDVq1fxc9k57PvuW/x4cB9eeflljBw1HtLuPTp869ofPHgQwIAOX5GuWoH6+nqwHwRtRIAIEAEiQASIABEgAioCbGTBzsEWtrbNm+CTjSKEz/szio4dx69/KKGsqwdbtPjmH7X4veoyZs8JhERqj7uKe6iru487tXdwrvRHnDp+GIEvLEFPB4cO3ST2kydPBpS/duhKdGXlyUjoyq1PdScCRIAIEAEi0HkJ1NbWcpVzaGJnu/auAo4OTX+r//vvv8N91Ejcrr2F+rp6wKYeEjuVY0WD8jZ+/e02fj7zM56eNAYX/m8wbt6+j/qGOty5dw83r/2GZ4NmIus/uyGTyTpsI6lcjyQPWr0C9+7dw7HjJZzcCd5eVpdvjsAfjxZxfnKPj/dAt27dzMnS7DTspv72u3wc/6kEFy9d5uQNHjQQo1wfweygP4O/2f+Z8v/wcvj/NKs8NrsRm/aUNiJABIgAESACRIAIdDYCp06e4qr0hPcTTaoa87pgfaWmzIbEjAT/6b64/vtNsFmVJN26oWd3WzRw/S4b1KMe9vYNOF92Bk+4P4NpU33Qy7kf6u4p4ODoCEcHCQKm2yP9yzSELQxH9+7dm1SHtsrETznbIjEKvJEgv3ULMpljW9WRK5fpwAyW1jAWDhQexr++zETtnTs6dWYGA/scLDyMF18Iwbmyn1F46MdmGwoKZdOClzljZu9enFT/AB977FHMfvZZHZ3pgAgQASJABIgAESACbUlg795cLjCyqYYC051NF98UQ2Hjxo04WVKCBhvA1saGm1XS1t4OErZ2g60dbO0bUH+frVMFFB34Ad2u/RdDxjyBh0YMh1O3evR7yBnDhg7F73/cwqXKM3jYbbzVUf4nezeyv/7/EDzrz3g2ONDq8pnA5jluGVBJbCQ8Ps7DQKrWOcXKZoYKbyww3VpqY0bC1tRtnJHgM2kC1ry7Cv+bnMR92D47xwwIloYZCc3d2CxHTZ0Fde/evbh8uQpLli7lPmz/P//5T9NVKlqPse4egs8SZFcLxclxLjseC3xUabyicsFfri5KwbKgKVxeL98lSCnir6jzX8lHXOhT8HL3gMHrwmJE+1fy+DKnYEFcDio1dpUcpVvfRDCnzxPwC41H3hVRZhOHispMRPs+gbHuS5DLq1tdjJRIlZ5j3acgpdSEgGZdKkWCDmueu5Z5Y0w5Lpz+T8AvMgVi5Gapdy4FM921ZQrzMD7LonI0bcyuVWcvwdh1VoRSnYNI9/XQSGT8o2ZjMmPjsxBxeVUClaqQHc5zUn/r6FKFvLiF2rzZleBvFU5vQ7w1+atRpLmX2H2WD8O3khy5UR66DIQ6ez6FyK3FOsygKEO6+p6y6N4vXY+xkbr8BTBEuwb0gnl1MtTOIuFmHipwLp3/PYp/q+yvvGkOpu9n421rpnLtLpnOb6k6H9E+i5Ft+KZrAd3LkB40BQlF/C+kBYqw6P5tXvlty7J5uneF3P8tL8eNGzdx48YNsP2mbmzqVNZnsmST1/yBxMRE1ewtDTacMaBau6EOyrr7uFfH5NXDvpst7irv4feaGly4cBb7dm7Fto8+QMbH6/D1tlQUfn8Ap85cwr59eVAqrR9PyowEtvHfltSxsbRs0V72saqhYMhIaC2XH0MVZmW3hrHA3tCzkQS2LQp7iRspGDx4kEYlts/cjFwfeVhzrrk7bKajpm5FR4vw4vwX0bdvH+7D9k+dPNlUcaiuqoRrzH9worRE/dmMYGdenAKlGxdiZakv1uWprhclBkB1uRplZc6ISD/A5StKD0BR5JvI1PzRq0R65HpIl+1CUWkJ9K/zZeh/K0oTsWSjFFF7WJnfIEqSgiUbS9UdwEpUySKQVsiuHUXavCqsjM400sETy65GbkIqnBOYzpsRwCpSnYvI4BTIolR6nig9gHB3cT5rHbsjWsNZxfNoeiiGBoTAl4PaCNPKDCxJkCIq+6iq7gHFWBJlbt35OsiRl7IFwq44d6WmEoVbF+Op4PeRr+TTtsZ3GVLC43ElJBkHGZs9UZBuXIKUc3zZ1SgrnovNRSpe3H26km8gdn8uQaIkCt/webcuRWKpqiPkHLxZcF+z/N9hjc9QRAWr8p/buhjxVXOxlbuX2H2WiCVby/iCtd/nMpGUrz1ke9XnytA3Mk2lc3EaAoqXYNkOnmo1cpctRmFAmuDef1dkgOvKa9KRAb0arZOV27km730sLJyEzRqGKZiXUKz+rTbCweT9bLptm8SrvWVy9kVCYTKCW20+ElcsyDmAaC9pm5Oo3LEQ0Xv4NzVWUKfVWVpB504uoujoUQxwceE+bL85G+vwWrJ9mbENNb//zq1LxQwE5nrEbQ0NnOsRcz+6p2xQrQhdD1y+Xo+Tv9oBTr3wQF873L13ExfPHUXJN/9E2b4vcOHwv3HmWKElKpiVlo0ksI3/NiuThYlUhoIVgpnbm5HAc2gNY2HvvjzNSMIUn4l80TrfLCah7Of/6pxrzkF9Q32Ts9+5c4czEHgBzGBgVntztr5SI4E6V3KQkBuEdbE+GKD3t8UZPguCMMpJXfIAfywIPonSMrnqRHUZCi/4IsBLLXuAL4J9TqLyemOaKlCcnQrP6DfgxcmWwSsyAq4ZOSjm+n/uCJjnCk2xPgHwLKtCo2K5YqtQVjgUrsP4yihQlPQupDHrEDLKCIPG1G3W9SrkrCtEcLivuj6mmVafK8QFX381F2CAbxB8Tl4ws+4qRRVFW5DSNwRzRXqXZr6JTERg19ZQ0ZUWPizNRZJzOMInq61TJ09ERA5DUq5mvAGAFDK+yYTqKIqRneKJ6GWeKn5cXldkZPMdVWFigNV9vSwKc0ex86XITXJGeLiP2vBV3WfDknK1Ix1c9ipkJxbDJ3SSjjDnyaEI1twzLggIDcLJ0jLUsFSV+UipfgPRwS6qPAOCEBV5ARl5lToymndgSK/G62Ttdr5QmgvPAF/13HsyeAUHQVZVBe4p0AgHk/ezhW3bPJaUu7UJyCtPQt6qLyRau4Zdr7zLl6+gvLyc++zNzQV7qTn1ySe5D9v/4YcCzXWW1pKtjvkHWbDl5edzy0Xxnhu8ncBEMMOBRYfW3a/H7dtK3OYWeruHW9du4ecz11BSVoPK3+pxpQb49Y4Nrt24hqryYuTvTLJAA/OSMncj5r3SUm5HTAtbNj3qwWb2X9urkcBjbmljgQUus83/aT++SJ1vZiRYw91IKLSpQcwfJaznxLy57E0IP+zkR+s/EhZh9n519QVAYjh5dXE+rof4gOtXGU4iOCtHdZUEfZ3VHW5nH4QE5CApW/WWVVGZj+yqUAS4qrPUlGrdTZjrRnqZ+i1kGYqyJ8F9lKBn6DQM7i4XUC1+AaWoQmFSBhAbAv4dMxSVyI1bCD9P5qYicCfh3F1eQgYO4V0/D7V7Rxnys30R5GPESDAmS10F5iYUybsB6blACV1APDA5KEPUAWUd1xQkOEeoO64ClJpdXabOPiHwz9midlVQoDI/B1Wh/tAi1XUFSz8ncjFQlCIpoRrhkf4Q0OVKc1+0CxsXecJZfEGgy7n0JSquBlxtTLIQuHYxN5z0IrUxyclWQtxfcHJ2gbLsgsqVp+Y6qiVGbtCyYuT4uMNVoLPTsMfgUnld1w2IK6cKORsPIVxjlAFK/YLhoixDpeA+q94TjwzPKIQ28iOQX6+CxLkvZ7BUn8tHmacrhmnYAS7DHkMZbyU3cl+xbJVGXe9UQo3p1VidGmtnk+0oqA+/6x4QgaqtqSjiLCQ5irL3wjXAkzO+GuNg8n62pG1N8mTufkuQXcTcIFVukpND45Gt8WWsRnakBxIOmnaR4usLKFC5Z736d89cKhciTuzuti4fpfxvRc+VTiuJGaucbtz9ptYjr1Tjssb01HGrVFQiW+NmNxvLNM9MrUxFUTy8RK5r3LmoXNRAXQZvgzO3MI3L32zEHVT9LnVcejjRonxGn91aPVR7um5pwXGFGh0WZgCHYp/mXECZq2ujZbJRPOHzNjIDxcLHiA5L5vJWidx16ueVu8pFVdvmYj1Vsnk32rE+s5HOM6ouRnq02rXRfQqCo4TunmouewqRwN1bT2BeDHNf1LrMcc878XNYv/gOfeb69RtgfZMNH32Ezzd9zn1yc/dixIiRePSxR7kP29/1n/9orrO0LA/La86mCkA2J6UqzbkzpZyhYGdnCxtbG7B/draqqVa59eQaGsCMj1rlPdyrr8Nt5T1cVTbgkrwePbr1QNjiOZgxawZcx46D/QNDUNPghLPlF81XoB2lVE2P2kyFjv1UwsUBMDFy+S3sL2BrM5jeZI6OsNZsSGx2I1auuRsfs2Ct8i+pLVuhu5FQF+Z21NwZjoTy2D6zaJuyXaniXRv0c1+5YpmFzktQVlfhUOLTGLsSkA31RXjsOwj3Ur3drTp3CEMHBCE9cgkSC68DfSchMmGN5jovg30rSlORciUC6zQ9dhn8ot9Bjt8zGBvLUgxF6NY0uPOdugtVkDHXjUQZoChGQvBCJLofRbQ768DJINPpG/ZF32HFKGPDBmyYnvnBLsjgip8UtQ0x/JtbdkZeBYXvOuyJdYEUVciOfAbx2d8hKTgISaVDkeC+Ba55aveq6hxUKp3hWhyPBbE7cVIuw2MhKxAXHQRu0MGoLGcw96hFcUrEZB9FkhNQU7Qez0dnwjUjBAMgR170M0iUfYKthZ+o31hz6gr+kyM//RAiI2M0oyOCi9yuHlMnX0TH5OCpmR54l6UYGorkdHdNp//CFRnnCrbRiRkh6zF7wadwL16hNqKYK8f7KAv/HMucqlAsLqyx48wtOJSyGXnFzKhiXGdjmWwX0ue5mGahKMXG8HjIo79CURLn64W8uJdwCL6IZGW6+mJuaTxSDk5CLBtVqClDZgpzBYxRaaSUQ65MxUL3VEDSF48FR2nbB0ooZTJdO9fZGUOLy7hRFh2PjnO5SHF+A19pOvyu8A0pRXxKIXxi2aiCHOd2pEBQMnAlB7EprohJd4WUxeQZ2xSlSNlahcgE9c2vBFxEFpeTszNwoYozYJxN3FdcEUUpyAnajPRCxkCOonULMS/BBQdjPVVtbVQvM+pkrA7cb9jUPW0k46hQxPk9j4WTVb9H+LyDb1aqR1Ia42DyfragbRvjiWKkZAdhc8YBsEcR+60uDFkPl8IY8F44mUmF2Jr0PYrYUOWVHEQGvwlZdhpCdG4ioHrPm1iY44tk9e8eNcVIWPA8YmXfI8FP/cIhJweVOzYjbwGz+DKwIDgReQfXwY8fBjWCkp3Oyb6Ar5K+B5c1fSFmJ+bjQAIbcWRuXC8hN+ArHIxlfKuQGTkbCa4HEMtXgo29eQUhJHI98q8EqXWXozAzB0ELVsBJNc6jLl2BooSFKPTZhYOJLkBNKfLK2IsFIy9NhDqbeHYLk7FnEHNL21X4CfdMLM0rgxLOCE4qwbB1HkgaxZ7Lqr81AttcKEKzr3reyhGdeRSqx0g+4hYcAnwjNGm0OypW2b7J2FW8mXu+qtr8Xcjy9NuhJm8lZm6UYWPKAWxUD2xysjTPrmQcTFBduJK9BLPDgbSccM0LtMyc69iVcQDRXJs8gyVBQQhJTMbBWClqDsbjqdgc+GSG6Lw40Ora8feYV8OS15Zi86bPwfooAQH+8A8I0KnYa68v5Y5z9+SCxVkylySWh59JUiexgQO2Yu84TowAACAASURBVLMl2+0bVVwcqK0dVPEJqIetjR233iyT1WDTACXqUVfXAFvOK8kWd+uBu/cbYOMow/eHf8HN+05wGzYMowa5YoBzd9y93TzPDUP6d8hgZkMVMXiujVfto9WFDbZKk066r9T6fn+TMAlFkYsF/uHAoR3FGBb3vcDXWhiHoCqy+uB6LIyTIypJ+/CEohBxATnw3KGKYThxMAaIW4iNav9xuAdo3X2kngjwVaJS8yrXGTJTf1TdV6h9zw8gyjkDS0IyoHFpd/ZB8GRmJLDNBT4Bk3DonHEDC8hEbnWIYR9ro7JU7lHDIiM0bkBO7A/09XwUs7941fnIzAtBHNcBNdIsV3KRXhUGX03HVTedIaaKg/GYmeOJrw6q2uxALBC/IBEapDNDNK5gUi9/+CorNW/HFaWfIv5CGOJmCv8S6pZp8igkCuHufCfCBcHhITiZzwJ4TbNQFOUgdVgEonjXIjjDb0GYZhQEUk9EZ4YDSc9yQfGTIzPRNyBEq4ozM/DU92hhGiKRgnmx+SoXH5aqr8yooaUVokBR5hZMCuFdvNgVKbyiv0I4tmA2F0S9BJnOAdCWXIXs+Ay4xkZojVutQO1edSESFrwP+bLNCBe0pQs/sqZNqd0zel+pk7iHI2KmurMNGbwWhMM9Mx+q6AlTejVWJ60K+num21E/vepM5Y7FWCmPwvfqNvomIB/PR2onPDDFobH72by2BdAYT7gjPDJAszSpk1cowt13Il8QjhKyLBzu/DNnQBDCQ04ij/sxC2teifyUCwiP0v7O4OSJqOgg7M0t1t6TQaHauINhvgjxzEfpBaEc4/tBC4I0eg7zDYFnXim4rMyNqzIMUZqXIi7wD/HFzjxBJTix7giKvI7sQvUzr6YQOaURCBEYE8LSq8oqVaNvTu7wU78gEl43uG/y2S3KcaUMFzgrQAZ3P9VIkyiFGYf8vRkFH/7x5eyLBeH8WKpIBM9K4KLq5MVcAfciV3cYgj2skZ+Zj5D4GK1stTj9ZxcwIHgFoqU7cUjzBwcIieTbzAW+AZNwwcsfIWr3VicvXwSVXdAx0UTadopD1uH/W/QKeD3hBTaa8K/t/9Kr1/bt2zkjgaVhac01EvQEmXFiqEtP2NkwI0EVk8AMArbPplttaKjnYhfsbWy42ZDu1dvA1tYGfSS26MseJ7Lu+PWPehwvuYgvMw/gH1tz8MkXuUjfc96Mki1Lwgcx89+W5TYvtVWmR2UBw9yogvwW2EhBa0xFKqzehCcaX6fBkHuUUEZz9gcNHAA2qnDx4iUYG1Xg5bPA5+TUbRg0cGCzfMpYYE1TRxV4XVri22lUCKKjd2JJYRnCR6kewp6LwrUPUO4P6LtIKa1GyAD2xK5G4bqlSJSH4ZNM7R9iplt1XgZ2BofiKO/HzfzHl7liSnYxIt19IK0pQ25OJnKzT6KqupIbLZgUx9eqElXsjwv/RwHXcb1yElz5vhOfDDKMCo5CePZs5JaGYhT3QrcaRTtSkZlbjAvVVSi7IAdCDb114oWEIFzzB0XdKQsuRFmsJ9zZDDIGZTGXICB/5RRuJIaXxL5Dub/PZTjk5QpNdYQJ1PvnclOBkGQDb5mMMa1GfsZOBIUe0RgDTl4RiBo1BdlFEXCfLEXNuVzkZO5FTmkVqivZW/VJWMPKu5KDZZEKROXxgegGFGr0lM4QD+A8VN3ZN83C53oV4OKi25mXSbkHMl+kdFgQYjOCuLe97Bx7wydx9dc2vyahC3yiVyDIKwfFMb7gnAX5t/R8mupqXPBxhc6tUnMImdlBCInmh7PUiaXDEBybhmBuxIsVnI9oiSsCnBUoXbcEmb6fIF0zBMYXoP1mxtySRDnCN36FANGb5+Jz1YCmUwfUML+5oXydjN1XvF7MjBFszn0xlDs0Qy+jdRLIM7hruh2BfMRGblEbK4Br5OeI86tCdoIS4Zm+mrYawH6PSe8ivzIAvgCMc6hGrqn7mXXazWlbri6N8GRjTjpA+8J5GDR14UToXAechxnqhMpRWTYUrprnkgqk1EnKhuMFLnTC3worW9+9zmATsJNCPaSAhPclk19AWVUGnnf/VDerjw+q4a7hzy6O8guDMqYQV+aFQFa4F9XhKzRvv7WZpfCK3YXodfGY5/MuXINWIHpZgGokVZvI8J7JZ7c2i9QrBrui1yM+ZApiRwUhOvoNBGjiw7TpGt9T3ZsuA/gXFaocMinr1hnYGKthrjpMGFg2Si2Xi0dNWNyaJ1wNPKyZO6HeswsySJyrUC12WxSqIZFpm1Eq2Bem6aT78+fP51Y2Pnr0KIJnB2uMAdZ3YnEKjz76KFgaSzc2vakl24jhQ3D49HXU1Wv7WqzPZWcL1DUAdfUNsLcBekjsIW1owAP2QE+7Bii6Ad3sbHH1+m04drOFY58HYWMvwaXLl2EjsSyg2hx9WRAzMxJaMpjZKoYCHwPAGwvHWmndAnMgsjSGjASms7W28eM8OENh73d5jboYZXyZieM/nUCPHk1fKZDpzW76OguH0qxV38bkKORyyNR+Py6jJkGuEPm5s8FpKftrxjotS5E+7EOkzRumfTDyBRh7kMqVzMsXmQveROWyZKxJdwH7O1vKhqK5vMPgGVCMwkoFgnn3jZpKlMITEaI/0HxR2m858mKeQeaoNMQlreD87Znv61OCtz/atMwQGYphklJwS1oI/0A7M3cWU7KkYAs1zt18BLGThRnV0s/1hUtltcrNRKdA/qAMhzJlCE7S6c42ylS/JVTy5KwzUbkTC5dVImrrGqQNYH+cmP/zFi5BdXEuDskP4ZDXTl4B1befB8rSSzh3L90LjR8prpShTOYDCfsDbIJFTbUMUMq5+BMNKdaZN1qEHIey8xG0gDNx9FMplJBDBu4WHOoJ/6JCVCqCNLEVNZUnAc8InU5CTXEu9gYHIU6jgL5YdqamMAf5waGIQxkSMy7gJJ7F2Hhh2kMYe2ENvk8Kgqx0PZZkDMW69BC9zpWzqydcdpThCtw1b4erKk/C151FLZi6r4RlCfarqnDSpS9CUIacRvQS/0S0dRLIM7hruh0BX8Rlsq6/cKvSj/PgLsvB+mOmOSjUMUlCeap97n42s22bxBNVqCp1gbN2+EikhAJVZWWQ+YhvGBmGuV7AdZ2XGICiRgH2I2DmgbHHnqgAyw8lfeHi+g42m+PCMswHIXgThyp9gPRqBCeInzN88S7wWbkZeSvV7m1xUnwfL25jllYOJTcqwPYrkW702c3L1X4PmLwCSfkr1O5e70OSt8YsFyzdMlX3JsdZ8JeGi6/TFqXdkw2Fq97zV8EFT8v0ZkWQwtlFv02ZMFlfF6CqCjVwF7zoYCxc4Cy0BbUl0x6AHg490KdPb85I4KdFfXjkSO4cu9aUjcUZWLI9OmYMHi09hx/LbnMOKHZ2wP379VwQM1tvrRvq0b27LZzsgf7SejQo61FzB+jWwGzDPrgudcCxy7/gt+v3ANtuUDQ4wm/cVEtUMCstC2JuyUBmpoTVpkfljYXWWrfALIKtYCQwPfyn+6FHj+5cwDJbT8HYxq7xQc3PBjVvYQwWYNM+tmoUZhdqAj9rzmUiMWUowv1UYZjOviEYmrheM883u56SMxfBLPi3Oh9JGZ4IN2QkcN4AAZiUmYHMc+qIs+pCJG7Mh38Am6FGjqoLMgxjb5rZ3+LqQmRrZh6TwScoCDkpO9VrJ8hRlLQF1eG+qrdipblamVxgYSK2VEcggBtNUEB+XQlnFxdVx7GmDPm5przx2TB9MRI28m4D1ShMSYGCK8uULKbjXOQkZaCUC+IUteaoIEQNS0XiDvUsOMz//WCphjMqS5ELfzwmjHZlIkwydebcqHZm7MQ5dZnVBxORmOePAE8ZF5txQTYM7K0bh/RgDnik+tOEbkMoG23Is8BIyOSDqFmPuhiJCTmYGzQJTjDNwskzAP7Z65HIBzCzgMykVC0LHXQsTmAl4pUxCOddJXTauxqFiYkoCw+CJ6uk0yQEB+cgJVO9dkJNMbYkVSPcT/g2WIGThXvh76ON5dApUn3A7u2V8QrEhLM4AP1pbL+PmwSEbsOJpCA4M3eFpAx4husbCZy4Ub4IRypSDqp7V1dykJgyCSGcD7up+0qtTGEKUnheLB4kYT0k3D3ZmF66NdOtk+41/SPT7aifnp1xRUCoHCnp+er2ZO2XiCTJXExiblgmOTRyPzfStpXpsxHMTZlsBk8cQspW/jcOXMlejwSJrttfZlKOZorlmqJPkZCtfs7V5CPWh19zZRh8w4ciJTFT8xtU/RaKEbaA/RZacGMsJalI2qNdJ0RbGjM+pyBSM92oC/wXuCAzPQV5zqHwF412qfJVIy89V/2MlcHVy11j9HEGXv5edYC6anQ4XTNhl6lnt1YjtsdGlXPVQeNOrp5wFy4yKpXgulwbjWy6TBk8A/yRk/CpRidFZQ62pGisF92Ch/kiXOf5y+JSPkVCURgWcBNXCHm5IihKt01rzhWitFoV7xFWuQWJ/O+YDc6yZ5nzGwgSuBnqFk5HVZevwMVlAOd+xOIW2Ie5IrFzVVdMuQEbZ2fHgg0s2LyenIVBvXvilekuePbRnhgts8OEh+wR8EhPhHr1xfLpg/CM6wN45AFbONnWY+iDMry1dB6e9nHDsGGOeP9ND2xe+xQiXn4S47xc0fMBGQJmGJ7wxgK12iSpVXub7c1YaOmRBL7FmJ/c/BfmcYdsQbXklG2cGxJ/na3EzM6xa2xjay04OxsZ8uQzNfJtb9+0wSAWAGRsM3XNWB42HCup3IJ53AxBT2B2XBkC0j9RrS/AMjn5Ii49AKXRbLYQ1fXgHTHgXrTJ5biODCwWL2jFz7jhHISN2QGojHtGtSBbyBZg0VeI4zpL7gjd+BhyF6lmJlqULYWXj1ZL6eQV2OFbimVsdiLP2UhxjsHGeepetYsU5+Jmc4u4jfV8BrHFPvgknY+NcEZA1ApUxz3F6TsvoQwuPp5awQb2Ri1KRoxzCmYzBj6LkTlsDTZzZZmWxek4rwoJwWzxNpZ3NhZpDA5nBGzchoCyeDzDrnnORuIFqSZMsKayGGXuw3TdY5hujTB1Dv4EuwIqET+TcXsC85KA8Ez1Gzr3UHzinqtqD5/FyJF6QoDUQM0tPBUSAFmKavYPr+BEKCJ3aUZTTLLg7qEQVEar2sRvWT5cFq2AtlWqkcfdX2pOlUFI28j7/LIYBCUKo1X3ENc+LjHYuozv9EvhE/0V/ErfxFNsUb/gFDjHfoIQHQPsAsoKXTDKRddtgdW+Om+laqE2dm8nXkBw+ida33KTeOSQVwMZ3P3L2oL/8IvYDUNI4juQJj3P3aeTo0sRkL5C9buB6fuKK9YnBO5lK1UzTPksQb5PsvqeNKkUd7HpdQJMtqPBoqVwX7kNa1wy1c+QZ7Cy0BObU/jfoykOgMn7Gea0LVPKDJ6YhBD3MqzkZiibgiV5PtiapBtcGhIgQ4p65prZGxWIzFY/50T1dp75CdICyhCv/t1PXpAB59hkLDPhoiYS0cRDxnINRuWq7nX2+/cLeVPzEkcs1MnHHy6ZOXBZIIzLEaaSwlmRg0XcwpVTsDB7KJKj1WlHheKTBZVYyZ6/PguRhACEazyETT+7hSVInBXIDlfPNLUgB8O2rtCMJriHrMHQrc9rF740WSbg5LcGafPUOnk+hWV5LgiP1j5FhOVy94T6+cs9192nYGF6X8SkRBmMN9K0qfq5yp4FEva4kLpjWUoMBmQuVj0nPJ/CytIApG1sjgunrqad7Yi5GLGA5lOnTuHkyZPw9/fnPmyfnWOTrrA0lm7dulnWZ3p0/HQsnzcGH7/+MILG94DvUFv82U2KOY/1xCtPDcb/zByBbj174tIdoKpOAunDj+KFF55BN0l37Pz6KLYk56KyrAxPDLmDVS+5YMu7TyDk2WmWqt1oehbM/JfFkWDfLbXZREREcKHgSUnWm9+V66CzmZDUMQvWml3IUgj8bEhslIPFUVjT3ciQLmyaVDYV6p07hlffY6MOzKAwttaCIZmmzt2qvcMF1phKQ9eIABEgAkSgOQRULniamc70RLEpLp9GWaQFo2t6MugEESACjMDJk2wGuFQuFmH2s89q1nxi06Cy6VGZscBmO2KuSOZutra2cGyCy9Lt08n4Zf8mnDr5K/778000QIK6+0qMGNwX/3ejBz7cfwm36uzQvbsE9fX38dJUNzw60Q/37G/jaMFe3Lp1F7Z2UvR+oAcWLo7CtMDF5qpsdjpmJPAbW0/BmtuoUaphL8tMLDM14EcWWMxCW2+tZSSwerJYhQ3rHgFbgI0ZDSzAmRkHgwcNwijXRzgXJWtG6XeXSFB717BR0tbcqXwiQASIABEgAkSACFhC4E7tXYQvCsNjj6mnilZnZlOoLlq8iDMkbrK1E8y3E8D6Sk3Zuo+ch9vfZwL1lyGT2eLW7fuQSO1x6r+1yDh+DTUN99FDAtxT1MK+mwRffHsCE5R98fmWTQic/wpOFOzAueIfcN/2T/D2e74pKjSapyWDmR0dHbnyW2REodGaUQKrEaBRBauhJEFEgAgQAQMEaETBABQ6RQQ6BIGmjibwlVPW/o6db4yGYzclKsrv47tTd3HkuhK/1zegm40NbGxt2cJWYKuzSaUS3JTfgdfY0Xg76lUMcX8cPR3uYdjwJyCROvAiO8x3i44odBgKnUBRh+5SMGOBNiJABIgAEWgJAiwAfLMJwaoFwEwkoEtEgAi0EQHWR2rOJnHohaCPz+Cd0ADsPVCM84o61NuyWY+AegA2bAokNhdSQwMUCiWcHKT4+ef/4uRPP0FRW4tnF0VBIm3aTE3N0duaea0azGxNxUiWeQSYtdyjmT8E80qiVESACBABIkAEiAAR6BgEHLp3B+sjNXdzdOqFv6fl4sW3Y9Cr9wOws7FBPbcug41qQTZuQIHtqxZj6+7ohIGjPfHcy3+FtHvHNhIYuxaJUWhuo1B+ywh0s7eHTXeb1otXYAa0ZVMSW1YhSk0EiAARIAJEgAh0XAJt3E9w6NEd9mzxAyttvXr1wnvvrUZU1DJkZ+9C9q5d+OXCBZw4cYJbwfnRx9wxeMhQsADswFnBYOk7y0aGQidpSXt7Oy6qv/bOXW5p8RatFjMS1D55LVoOCScCRIAIEAEiQAQ6FoE27B+wxWiZkWCNkQRD0JkB8D//8xfuY+h6ZzxHhkInalUuaKenA5T37kOhVIItN95im4XLobeYHiSYCBABIkAEiAARaD8E2qB/YMOCiSUSSCxcL6H9QGu/mpCh0H7bpsmasR8K+9TV1eHe/TrU1dep/eha0HBosraUkQgQASJABIgAESAC5hNghoGtrQ3s7OzQzc4ednbNj0Uwv/SulZIMhU7c3uwHxD60EQEiQASIABEgAkSACBABSwmQCWYpMUpPBIgAESACRIAIEAEiQAS6AAEyFLpAI1MViQARIAJEgAgQASJABIiApQTUrkdyS/NReiJABIgAESACRIAIEAEiQAQ6IQHedZ0zFJS/XsJ/z//SCatJVSICRIAIEAEiQASIABEgAkSgKQTsASVuVt/AwyOGNCU/5SECRIAIEAEiQASIABEgAkSgExFgM2eyzRbKm7h+c0AnqhpVhQgQASJABIgAESACRIAIEIHmErBV3ryOGwOdmyuH8hMBIkAEiAARIAJEgAgQASLQiQjYMrejAX1knahKVBUiQASIABEgAkSACBABIkAEmkvA9joexgCn5oqh/ESACBABIkAEiAARIAJEgAh0JgK2cO4NSWeqEdWFCBABIkAEiAARIAJEgAgQgWYTsB39IJkJzaZIAogAESACRIAIEAEiQASIQCcjQCszd7IGpeoQASJABIgAESACRIAIEAFrECBDwRoUSQYRIAJEgAgQASJABIgAEehkBMhQ6GQNStUhAkSACBABIkAEiAARIALWIECGgjUokgwi0JUIXM1C+COjMVzwWXusKwGguhIBIkAEiAAR6NwE7OzswD5kKHTudqbaEQEiQASIABEgAkSACBCBJhGwb1Kutsx0bD2Gv5hqVQ2mfVCAlDmNrE6tuIzThUdwuKAA2aXncelUBWp4LRycMWb4CIzwmg6/WVPh7zYQUjv+onnfxxNGY26yGWm5svoBD43DNB8P+E6YgDFDnC0uz2RJNytwvPBH5Bbsw+Gy8yg/Ww0Fn6H3cIwZMALjn5mKAL8ZmDi8FRfrq1Pg0tl92P91AXKLzqO84iyu1fKKAdL+bhjpPBDjn/TG4081rR200miPCBABIkAEiAARIAJdk0BdXR1X8Y5nKLR2e10tQdqWBGzYXqI1DMQ61Fbj9Cn2OYIcZsP09sDC6Fgsn+0GJwsNBrFovWN1WTh1Fqf3bcfnLIGDM8bPjsCqiPkY318vh9knaioKkJYQg015AsNAnPtmBU6zz6l9SEuIhbT/VLz2QTyW+jRiaInlWHJcJ8fpXYl4L2E7jt80nlFx9SxOsw/T7XPALAPQuDi6QgSIABEgAkSACBCBLk2AXI+MNr8C5VmxmDF1Pt4zZSQYyn+zBGlvz4H3c+ux/5qhBFY+V1uN49vjMXfqOMyK2Y1LKiPQ/ELqqnE4cT68AyKwwZSRYECi4moBNoRNhUfUdpQL3u4bSNq0UzVHsOG5qZj1tmkjoWnCKRcRIAJEgAgQASJABIiAMQJkKBgiUyfH4YQ5mPF2FsoNXTfznOJsKsKnR2DHFTMzNDuZAqd3RGOGJQZK3WXsWDodoZ+XaN2LmqBHzZ54rtzj1jQWakuwdl4YPj+rcXzS08xpuBvGPOqGkb31LtEJIkAEiAARIAJEgAgQgWYQ6HiuR4+vQMXPK4xX2UAMg2UuKAoc3/AiQpMrDJQhw8TF0Xj5GW+MH9APTr2lgEKOmpvXUF78A7Zt24KcErluvtoCvPXnCHTP3YIgi9yCwrDz5xUYrytNdVQrx6WKn3D4m+3YsL1Ax0+fJeAMlIXAzn+vwHgHQwLU5zgjYRbeyjPQEXdwQ9BrYXjJbwJGOsvg5CQFauWouXYZx4t3Y1viduy/KspXkYq5z0mwMzsK46UmyjXz0um0GOg3gwwTo9bj7/O8MbKfqBB1DMPelFRs2H3WzFIoGREgAkSACBABIkAEiIAhAjSiIKKiKFhv0Ehw8lmBncVHkBE9B9MeHagyElheqQxO/YdjfGAYNu44giNbwjBG3DmvLcDK1VmWuwSJdNMcOsgw6NGpmBe9BUeOFSBjqQdEXWagIhWhMfuMx1UAKN8ebcBIkGLMvAT8cCwLGxcHYvxwZ5WRwAp3kMFpiBumzVmBlPwCfL16Opw0Sql3Kr7AW4nNG53gJCmOYEeS2FgbjsX/YvWdqm8ksEx2Ugx6NBCLP87CkewYPK4HRawsHRMBIkAEiAARIAJEgAgYI0CGgpCMogQb3tuu54Izck4ivk4Ow3i9XrEws2q/n98K7NwRg2kiY0GRF48N34pGG/SzW37GzhkTo7bj2w+m6hkLit3rsemY6K0/X8LVLKyNK+GP1N9SjF++HTvjAzGosSBsOxnGzE/EvuT5GCmSUp4cg+TmvtCvKMF+sRtTWCxWmdn7d3Kbj6WBLRhgLaozHRIBIkAEiAARIAJEoLMRIENB0KKXshKQLI4nGB6FT+KnN95xFsiRPjIf61aLO+4K5KR+jUuCdNbcHTQnERmLh4tEXkbyNkOjCgoc/mc89otSSwMTkPKqm57BIUqmc9hv6gp8uFRcbgU27TyiZ3DpZGzsoLZGj9XEEQMay0XXiQARIAJEgAgQASJABKxEgAwFDcgK7N8pfsM+EMs/ehVjGnu7rpGh3ek3KxqrPLTH3F7J/yKnuW/aRSK1h1KMfy0aC0UjGdizD/vFU4oqjiA3TTzSMB3rYg24EmkLMLInxfiX9ctVpGVhv2ahCSNZTZ3uPQBjRNcPF5qYolaU1qxDFtNwqgA7kuMR+dwczPAWrDbsMRWznovCe9sLUC7mZ0A4WwdDuFLx8MVZ0Ex4VVeN41nrERk8FW7q1Yw9AsKwLLkA5UYYXTuWhbVLhTp5Y8ZzUVibVYJrjc1q1djKyTUV2L89Xkef4d6BmLU0Hml5FahpTL6B+pt9iit7PZaFzYG3B89sHLyDw7AsMQuHK1pg1M1s5SghESACRIAIEAEiICRgW3PjnvC46+5X/Igdp0TV9/gLgh4VnTP30G44Ap6fKkp9GbnFYr97UZLmHDpMRfB8sWP+Phw7qWsUKI4UIE1UjnThfPg3deYgg+XuxqES3XJFRZo+ZIu66Rk9n+Ld3ZdN5zPnKuu4s+lkJ43Dk89F4K2E7dh76qyuQcCtV7EPaasjMMPbG5HbK5o0QqI4lYrQSVMx9+1U7BUsXFdTcQQ5CRHc9LufnxJwqq1AWpQ3vF+MRfI+oU5ylJ/ah+S358P7z7HYKx75MqfeAC7tjsWsqYEIX71dRx+wtTH2bcd7EYHwfq7p8o2qwabg/TwMHp6s7FTkFAoXy1Pg2tkjyPk8FqEBUzErJqtlpto1qhxdIAJEgAgQASJABAwRoBEFNZWashKcFhGa9vwMDBKds+Sw34TpmCjKcLrwjPZNs+iaNQ7HTJijJ2b/WV3jpPxsgSiNFAuf8bbI5UgkAOOnzhefwo6fmjF8IvXGvEixS9Nl5Px1FuYmHmn8rbqeNoIT137AptWWrMsgx97VcxCZZZmR8sex9Zj13HocNjUiUVuCDQuiVFPosv0X5+C9PY28Va/IQuSiL3Dawjf/l7IiMOOvWTgtjv0QoGG7irNZiPyzFaf1ZcYPm4I38YjJ4HqVGmyK31jMejERVp1qV1RHOiQCRIAIEAEiQASME7CzswP7kKGgZlT+8z4RrYF4fHQzg2EHjNBzn8GP5/V870UFN+tQOsJNzzi5dEPo31KN8z+JO7zT8fjDzSoWGDoc00QiFGcvN8soGrMwHnphF1Dg+Odh8H58jknXHZEqJg5lGDl9PpauTkBGaqrqCe8khAAAIABJREFU83EMFvrIRHkU2B/3Kfaa6vQLc9zYh7V/S1Wtw9HbA0Fhr2Lp0vnwHy6WC6C2AO+l7MPhf8Zo1oxwGj4dC5e+iqVhgRjfXzxKBKAiEZsaMygE+igOJmLR2wWqURFuJe8wLGXy50/HGEPy2bS+71lhpi42Be9f5+A90RS8Th6BWPWxmveWOCwN1I2NUZz9Am8mNjPORVB/2iUCRIAIEAEiQAQsJ9Dx1lGwvI5m5FCg5qbA/YPLMRz9muqKoynRGSMnAPhRcwKoVQoOWmBX5oR+YrHnWYfdW32+Bn/8Jk7QD/3MmNFJnEvnuN9AbvYjnQDp+2KmOjkaP3DwwKq0LVAsjECa7qAIUHuWc93JSZBh/Pxo/D1qDsZY1F7q9RgWTsVIvbp7Y2LgfCzeEYEZMerONdO2dje++iEa/rPNMCBPFXDB4iMXp2Lncm848XEuUTGc+8+iv+ou5qdIi0IoR0SKafFfI2XeQC2faDkOG1jbY2/ej6gJNC+uJO3zLwDI4L/6f7HueTetPgCWr1a5JIl1QkE8kn8MxN99DBgqWu1M7ulPwWugfvDGRL85eHneesx9SW1cMTep1ETseH47FooHlkyWSBeJABEgAkSACBCB5hKoq1O5LdCIAkdSjt/EL9kxAoP0etyWYu8OSCzN08z0Tv3wJ5MianBJHIsxYbi+cWFShoGLdk3vTBqQpj3Vbyr+/u/d+HCe7htnbQI5jm+PxSxvb4R+bqZLkt0IvLRbvR6DnpGglTxoThReE020tP/seW2CxvamxmGr0EhQpx8UGINVerEkqovMsEgSGgnstJ0ME5evx3KRLthdYsHK4VJM+yALSfN1jQS+CoMC47BVb4pdBdKyCsxwF+KliL4VR5C2QXeCAIP1U2dzmvAG/r5QeB+VIHlPM9zXROrQIREgAkSACBABImAZATIULONFqduCgMNwzItni6jFYZ6bsCMpVEaOw4lhXKDvjp8bGcno54FpjxiTI5BpNxxjnhQcs11udEZ0zuChFIsj5xiZVleKabPmG4gJmY7XXjaweB6Tb+eGibPFOp9H+VWDheuf9FiBVbMFoxT6KTBoToz+TF27SyyOheBF1+RlIU0nHsJE/bhMUkycrhvrcun7nywwhviS6ZsIEAEiQASIABGwBgEyFNQUu+s5YZ3HJc38ltZA3Uoyrp7X71gN7KezgrJUPJvQjxXNiiVopZrByW0OPvz3j/ghdQWCPAz4+jNFKrLwVuAcrDW20JwhZeuY65kcl04dweHd27EhUTV956ypExC+3VAGc87Nh694elxhtgHD9WJJEBiIaSbcpwYN8RZKsGifBeaP5N2fjOYciImz3ERXz+CSucaITk4Fjh/ZrXMGftMx0UT9uMTiWJdTFbjciN2nWwgdEQEiQASIABEgAtYioNc9tpbgjiXHGQOZH3SeUOsKXGOBq/2F5yzdv4xy8QRD1nDzMaXGzWqInWMGPdRP8PZ6IAZ5AtDR6xqusXhnE244porkrhkyUEYMbL5Lk7hgOykG+YRho08Y1pzajU0b4pBcKJ4lqALJL4ZhUK4J//Y6Ocp/2IlN/0zF3mPVTZr6VKyazvGE4RhoqmPef4ReTMeYcSNMNkG/QSPEDadTpKmDkUPNiKsAMGjIOABCd58jqlELsduTqcK4a9fwmziuJC8a3o9EN5pTN8Fl/Nbs36GuRDoiAkSACBABIkAEzCNAIwpqTv2Git/WXsaxM9XmUTSW6sp5vSlX4TawWVOuGiuKP3/tzE96sypNcxNGgzqD62/yGbjvfTj2X50Tlh9cqNBb6bmlV1J2ejQQq1KPoORfKwy8qS7Be29tR7mhKUSv7MNbz03FjIj1yGkJI4HRkwDdLaTYz6E5lpqFhRlJLu0pdm8ykrDR09UoFwbxN5qeEhABIkAEiAARIALtjQAZCuoWGfSIvm/4/oIfmx7ICaDmpwIcFrX4NDf2VriltsvI/UpnqABAICZ56Hb+RrqJF4JTYO+PwrfIlut3+ph4elkpxj9i2ife8lIM53B6PAwZ+1L1p1ItWY8durG0QG0J1i6Kwo6zuv4sTsO9uSlMV32wBRmpWfjhyBGUnDyDnYsNl9lpz9L6i522aaliRIAIEAEiQAQsJUCuRzwxtwmY5/CFbvDlnu3Ijgps2vSMdRXI3ibuPE9FwATzXEB4tSz5Vhz7F5LFHePA6ZgoelHdb9xUjEcBjguEX/pnFvaHxWCaOH5BkMbobm0BdvxTNG2Uw3z4PmY0h/UvOHnjtdemI/mvQuYKnD5/GXhca7CcTo1GstAlZvgcfPhJNOa5GYl5sL6m7VripYtnRPp5Y2ST3O+keIC5KwlXkJ6fiCNREwRucKKijBxKRfevkWR0mggQASJABIgAEbAyARpR4IGylYBf1nYoVadL8N7api06dWlXAtaKO+0zAxHQpE4Xr6SJb7aq7zupIrej4Vj+soF59ofMwkszRbJqt+O9Ji1wpcDxTQm6BhbzdX85EONN+eiLirfGodND4vYDDl8Quo+VIFdk0MyLjjFhJMhxrUmBvNaojZVlmDVSoMD5M0dEBY/An5pk2/bDIFeRqIoa3O0tg5OFH2kr30ciremQCBABIkAEiECXJWDr1Kdbl628uOJj5ryqt7owCmKxaEOJRcGuimPrtavgagoZjuURgSaDVTVJLd2prUDaX8N035SzznpYLBaLJ7HhZMvg/1KYXqzEpdQIRGaJRgYa0eVSVhRCdV7RA3AIxKr5BgtuRFrzLitu67oTMWljHhK8jr56Hqd1puv0xnhXXbcsHQ0UZ3BIJ8Bd52qHOth7zAzXspv78JV4lqdAb4w3gcg4BGeM9hHdAz9mYf8vxnPQFSJABIgAESACRKB9EaARBWF79J+Dv8eL/feB8uT5mPV2Fsp1OpnCjNr9S7tjMXeRdnVZ/orxTjufomnfNWez8NaLc/BenqiTPDwMn0R5G3XzkD7+Bj4ME7+BV2D/27MwN9GMhcvq5DieHIZZbwtWLlZXYdqqN+Df2DSYjVW3JBVvZZ1FjaFgZEN56y4je5u4lwuMH2Jqup4Sk+sQXMpO1RspMVR0Rzh3KTFOf3VrHcUVOLzlU+zVOQf4+01osnE70nOGyBgtwdoPmjZCJ1KLDokAESACRIAIEIFWIECGgggyW3TqQz/9V6jlWbGYMWkOliXvxvGKatTwRoNCjpqrFTiclYhlwePw5F+zRG+tATTSaRep0Oih4uZlnN69He+FecMjOFYvMBe9p2Pj1hUYbzLeQIqJUQn6AcBQ4PjnYfCeFIa1WQU4/YscNbwNUitHzS9nkbM9HqGTvDE34YhesLfULw5/nyM2QBqtkn6CumrseHsOPCbNx7LELBxmzHk9hKnrFLh0bDveem4W3hLHcTvMR4C3oC179xN1XBVI+6fhjisz+BbFiAUKC+5o+yV478UopJ0VTyULoK4a+z+Yj/BU0WjSgDC8PL0ZsRtuc7BUZHcr8hjXLJxm0/Ea29jUtXmpWJYq9t0zloHOEwEiQASIABEgAtYk4OjoCPahYGYxVbuBmPf518DSWXhL/Ja+9ixyEqKRkyDOZOJ4eBgydjTWaTeUPxVzH0k1dMHkOalbGJKSV2BaP5PJVBcdPLBqRyowT99tCTePIPntI0g2QwyfhBkJ335ubDViPpWF3zdLkPM5+6jzOThjzHBV5RRXzqKczbFvcJMi6IMoTBTYCZCOw+MzgbQ92gys4zrDdx/mRQQiYEg/XPulAHm7diKnRA44TMU0zwLs7wT2wqABA3Hpyj68F1yATY9PR/CEAarRppsV2LtnnwGOA7H4gzea6HbE83XGvL/HIffPsdjPG9YAmNE9KysBI6fPgv84NzzuNhBSXEN58XmU/1yA3MKzuMbSL96Ojbwo+iYCRIAIEAEiQARajcCtW7e4sshQMIScMxb24U8JryIy9axF8QlCcSPnxGFz7ByMNPlmX5ijOfsyTIz6FBsjvNHPkuBPJ2+s+vduDHr7Rby3x8DbZrNUkmL80i1Ies3Css2SLUpUW43Tp4QByqLr3KEM/h9kYeNM8dtwGYIiorBpT6LO6tWKqwVIW12ANB1RUkyLjcHL52d0CkPBPzYBSJiP5AoFrh3bjeRjOpUVHbC6b8HyCUIrS5TE3MMBc5C0tQKzXhS748lRvm87yoWTVJkrk9IRASJABIgAESACrUKAXI+MYbZzxrS3s3AkOwGLfcQdTmOZVOedPObj7/8qwLcftIKR4OCMaYsT8PWRI8hY2sSOusNwLEw8giOpKxDkZknnUIp+flFIyS3Azqgmlm0MpfNwTOtviS5a9h9mf4ckY+5Pbq8iIzkMY0wab8Mx7+OvkTKHvenuJNsDqtGjpY21r4Obqu4Lh1ut7tLHV+Dr3XGY11jZQtS9PbBwnBVc2IQyaZ8IEAEiQASIABGwiACNKDSCy8mNrf4biOXXKnC84Afk5u3G8fOXcbpC+/Zd2t8NI0eMwMTpUxH85HSMGdBS3Usp+rkNx5/6jMBEH2/4+j2J8UOcYa3pI/v5hGFjdhjW/XIWewt3I2/fjzh/vgKnr2qDA5yGu2HQiHEI9puOaX7eGNncoGVj/IfMQUrBHCiuVeD0kR+Rf7IEx4vO45qOu5Gax0Cmz1RMnOBtFvt+U1fg6/xA5GxLxVd7fsBhdVuyuk30m4+XX5qD8S01ja2x+rbGeSdvLP93AYJ/2IlNaVnYX1ihijFh7lzjJmBa4HzMC/TAoBa4faWPzMGH/w7E0rP7sH/nPuz46SeUn63WjNZxvyHngRj/zFT4TvDGROaOZMnIWGvwozKIABEgAkSACHQxAjYRERENrM5JSUldrOpUXSLQSQlczUL41FjsF1Rv8b/OYNXjghO0SwSIABEgAkSACBABIwRGjRrFXSHXIyOA6DQRIAJEgAgQASJABIgAEejKBMhQ6MqtT3UnAkSACBABIkAEiAARIAJGCJChYAQMnSYCRIAIEAEiQASIABEgAl2ZABkKXbn1qe5EgAgQASJABIgAESACRMAIATIUjICh00SACBABIkAEiAARIAJEoCsToOlRu3LrU92JABEgAkSACBABIkAEiICIgJ2dao5yGlEQgaFDIkAEiAARIAJEgAgQASJABAAaUaC7gAgQASJABIgAESACRIAIEAENgbq6Om6fDAUNEtohAp2EQP85SPl5TiepDFWDCBABIkAEiAARaCsC5HrUVuSpXCJABIgAESACRIAIEAEi0I4JkKHQjhuHVCMCRIAIEAEiQASIABEgAm1FwLaypq2KpnKJABEgAkSACBABIkAEiAARaK8EbK/ckLdX3UgvIkAEiAARIAJEgAgQASJABNqIgC1u10LZRoVTsUSACBABIkAEiAARIAJEgAi0TwIUo9A+24W0IgJEgAgQASJABIgAESACbUrAHj0dIGlTFSwv/Mbvctz8owb36+pRe+eu5QIoBxEgAkSACBABIkAEiEC7JLB33/e4UlXVLnWzVKkhgwbAwcEBXuPHwmucu6XZ2zy9/cMusjZXwhIFbvwhx43fayDr6YAH+/W2JCulJQJEgAgQASJABIgAEWjnBFL+Xxo+S1jTzrU0X71v8w7g0JFi2ADw7GDGgu2DHWw44SZnJPQgI8H8+5NSEgEiQASIABEgAkSACLQRgRl+U+D2yEgUHT/RRhpYXqydnR3Yp8PFKDB3owf79bG8xpSDCBABIkAEiAARIAJEgAi0AYEZflNxq7a2DUpuXpH2zcve+rkpJqH1mVOJRIAIEAEiQASIABEgAs0jcPHSleYJaMXcdXV1XGkdbkShFRlRUUSACBABIkAEiAARIAJEoMsSIEOhyzY9VZwIEAEiQASIABEgAkSACBgnQIaCcTZ0hQgQASJABIgAESACRIAIdFkCZCh02aanihMBIkAEiAARIAJEgAgQAeMEyFAwzoauEAEiQASIABEgAkSACBCBLkuADIUu2/RUcSJABIgAESACRIAIEAEiYJwAGQrG2dAVIkAEiAARIAJEgAgQASLQZQmQodBlm54qTgSIABEgAkSACBABIkAEjBMgQ8E4G7pCBIgAESACRIAIEAEi0CUIXMPej97F+99dM1nbE+nv4vX0MybTdKaLZCg0tTVPfYnXo7/Eiabmp3xEgAgQASJABIgAESACLUBA1el//aMfcLUFpHcFkXZ2dmAfMhS6QmtTHYkAESACRIAIEAEi0FUInPoeu9EP/X8rxYnfukqlW6aeXcdQ6DIjAOYNnTXtdjqD5Oh3kXyqabkpFxEgAkSACBABIkAEWprAiZIz6O/xAgLdr2H3t13HTciaXOvq6sA+9tYUSrKIABEgAkSACBABIkAEiEDbETiDotJ+8JzRD2Pdn0L/j0pxAqMxVqzQbz/g/Y++17gm9Z/xAjzFacBekArczN1fwGK9NJ37RJcwFFjgSXKpqiHZG3FgNBYnvMDdNFe/+wzvf6sNXOk/43W883Q/TasL87KTY19ag8WPai5rd/gb7k9P4Z2/PYn+2is6e+Ly4P4CPlswWpWGjXpsE1i+YllcGaXw/NtTuPSR9sbV6MzrwKR9+xle/xbQXAMgLlunLlzZwOK/PYTdgh+OJo1Qt23v4nUhC+E1VrawTjq1pwMiQASIABEgAkSACLQcgavffY8Tf3JH4J9YGaPh+afvsfu7axgr6NtB3V968KU1eEfdp+P6e79B0H9TGQm/zngdn6nzqvpRrJ/Tcvq3N8ldwlAYu2ANPuM7wmoDQdUQZ7D76lP4LEHdUedunM+Q3F9lDLAbIvnqU3gnQd3xP/Ulkg224Bkkf/Q9ILiZDCVTGR3MSHldbdmeQXL6/9/e3cZYVd4JAP/DvaUFBwsK47TUXYpKyNQA1TZ+WDKaaNQmfNhE06hpTLDzgSb1m7JaxQ+6vgT7jSY0WSqJaZQY+UayapfWnaUfmlYWzO5sQoUlsU0Hhhaio6zYWzbn3BnunXdm7ts5Z36TTLhz7nOe5//8nnnI+d/zPGeqJcd++bY+9mzck/5yRyTln9/xp8tJTbXkcBz88fvRv+vZalab9mt/vL3x0bin+/Z4aldvvP3j3fG7zeMTnrT+oxtrfUn7+kzsHZf4DMbeV78ST+16Np0o6Tmv7o9jidnND8TuXdVJE/XnJPW8Ohy1uGt9msrAMQIECBAgQIBAawSG49jR4ejZ3Dt6wb86Nm1eHQePDsbQXbUPcY+9cyiGNj5wOUlIYtn0vUdja3L9NBpYNeG4c9yHxz13PRr9Q89Mcy3Ymh51utaFs0dhSune6B/7ND95vzvJPCNOD1XvMKT/9qyuZZc3PzDF3YTR21LJL1x9tjqxvTP/HgffXx1bH6veyai+Pdb+YBx8Zzg2PZxc7NdO3PS9pOxg/HbCnoBND9fVcfOdsbV7OH73fu2uSK2GsVdJ/RFbH65Nkui+PbZujEjW8dW+Vo8r03PXnVO2XysfEWf+FEPJhqHLcY/1aVwpPxAgQIAAAQIEWitwZjB+d6Y3ttZdj/Vs3DhhU/NwDA1FbNo8+iHxNBEl14C1hGOaQgvg8IK4ozDzOE5Yfxa1206b7k7WtiWPQU0u8MdfxFfrTD7d359mpZeXD03XWHJB3b0xNl2+oK4reGY4TkdvbJ20pKk3vr0x4mCSuNw8thxqdVw/VR111U16mdY/HMd+/EwcnPjmuNtn9Rf8EwtO83OaqOxONznXL3OaprTDBAgQIECAAIGWCKR3CiLSa5KJDSSbmu+p/3B4YgE/TymwoBOF6nKf5JP8Z2N3epGePDGodtsp+dQ9WXYUyfKe9CJ7moRhaDjdDDPdvoQp5dt+sLYvo7lNr457kuVS6YafyfsimtuW2ggQIECAAAECUwkkm5in3ktavd4bv6k5XVFxc/1dheH4cMKjVIcmLFmKqN6NqC01mSqOYh1bPHj6YrF6dMW9GV3HdvejUywnmlBJuj7/0SmW+FQTh61xKJ6f7Y96dH9lwq2vuja6V8d1UywxiuTY+xHX9YzdTag7Zy4vp61/LpXMVjZJRJ6Np+5eHenEmq249wkQIECAAAECzRL4r2oi8O1JqzMixi+lXh333Nsb8f7+cY97P/bz2kNikpDSVSVnDsXP6v5S89C/7Y+DE5KJZoWf1XoW/+XsuVgQqUJyoZ5kgpcHeHX09EQMje5HSAZo4i/AxF+aqQcx+UT90Zg1WUj3BFSXKtX+mnOy8TfZI9AbW+9eHcde3R1vX44v2cy8P4513znFkqSpI6kendyvpP5kCdOxZGNy3alJf+vbq3trmpfVZU9jezjSQskG7wl7KKY52WECBAgQIECAQAsEhuPttwYjNm6c/BjUtLXR66C3Rv9Sc/IB8MO9cSx5iuOO6vdvNycfCNeFlqwqeezO6lMkR8v8LB6I/nFLtuvKF/RlOc59Gp8VtHPjupVeqB+KvekSotFlOMlm4R3JHoRqyeQZulu791/e8Z58ol99nOrY++OfJFSrP0kWHogPd+yP53e8P81+hmRH/bPRnzyqNX1Ea/XsZNlT8pXspH8qdsfz9fsIkseMPlZ/W6zW4kyvansrao9Hnart9DGmd81U08T3qln4wVerS4zSR6dGkoBUH5ealp74SNeJVfiZAAECBAgQINBUgbFl0NNXmj4Bs/7tdLVI/YGIuDlZSl33NbYEve5QxLOxe9zPxf5h0c0333Np05avx8/37MlFT//zv38f3/zGTbmIVZAECBAgQIAAAQJzE0g+5d+9q/pB6tzOzHbpPPVrw4YNKWY5vrYqlmfbVXQECBAgQIAAAQIECLRJoKurK22pvOYaaUKbzDVDgAABAgQIECBAIPMCIyMjaYyLv3515mMVIAECBAgQIECAAAECbRZY4H+Zuc3amiNAgAABAgQIECCQEwGJQk4GSpgECBAgQIAAAQIE2ikgUWintrYIECBAgAABAgQI5ERAopCTgRImAQIECBAgQIAAgXYK5C5RWLb0S+300RYBAgQIECBAgACBhgX+/vo1DdfR7gpylyiUS4vj9PC5djtpjwABAgQIECBAgMC8BN755X/EsmXL5nVuJ0/KXaKw8stXx8effBKnh//SSTdtEyBAgAABAgQIEJhV4J1fDsT/HP99fPuWTbOWzVqBctYCmi2ea1Ysj1gUce78R3H+5Ifx6YX/m+0U7xMgQIAAAQIECOREYM1XvxqP7ngmJ9HOHObfXb8mupYti3+47VvxrW9unLlwBt/NXaKQGF7z5eXpdwY9hUSAAAECBAgQINCAwDe/cVMDZzu1GQKlUimtJndLj5rReXUQIECAAAECBAgQIDCzQC7vKMzcJe8SIECAAAECBAgQIDBfgUqlkp7qjsJ8BZ1HgAABAgQIECBAoMACEoUCD66uESBAgAABAgQIEJivgERhvnLOI0CAAAECBAgQIFBgAYlCgQdX1wgQIECAAAECBAjMV0CiMF855xEgQIAAAQIECBAosIBEocCDq2sECBAgQIAAAQIE5isgUZivnPMIECBAgAABAgQIFFig/NnpP8eFWFbgLuoaAQIECBAgQIAAAQJzFajeUbjw6VzPU54AAQIECBAgQIAAgQILVP8y8xe+WOAu6hoBAgQIECBAgAABAlcqUCqV0qLVOwrl6g9XerJyBAgQIECAAAECBAgUW6B6R6HYfdQ7AgQIECBAgAABAgSuUKBSqaQlPfXoCsEUI0CAAAECBAgQILCQBHJ5R+HixYtx/vz5uHDhQly6dGkhjZe+EpiXwKJFi2Lp0qWxYsWKWLJkybzqaNZJ5m+zJNWzUASyNH8Xirl+EiBQFchdopBcZJw5cya94Ln22mtjbLOFASVAYHqB5BZiklgnc6e7u7tjyYL5O/0YeYfAdAJZmb/Txec4AQLFFSh/8bprI0/PPEruJKxcuTKuuuqq4o6KnhFoskCSUHd1dUXyyWQyh5JkoRNf5m8n1LWZd4GszN+8O4qfAIG5C+Ruj0LyqWiyhMIXAQJzF0jmTjKHOvVl/nZKXrtFEOj0/C2CoT4QIDA3gdwlCsmehMWLcxf23EZFaQItEkjmTif39Zi/LRpY1S4IgU7P3wWBrJMECIwTcMU9jsMPBAgQIECAAAECBAgkAhIFvwcECBAgQIAAAQIECEwSkChMInGAAAECBAgQIECAAIHcPR7VkBEgQIAAAQIECBAg0DqBsT8/4I5C64zVTIAAAQIECBAgQCC3Au4o5HboBE6AAAECBAgQIECg+QLJH3pMvtxRaL6tGgkQIECAAAECBAjkXkCikPsh1AECBAgQIECAAAECzReQKDTfVI0ECBAgQIAAAQIEci8gUcj9EOoAAQIECBAgQIAAgeYLSBSab6pGAgQIECBAgAABArkXkCjkfgh1gAABAgQIECBAgEDzBSQKzTdVIwECBAgQIECAAIHcC0gUcj+EOkCAAAECBAgQIECg+QISheabqpEAAQIECBAgQIBA7gXKn3w8GB/H9bnviA4QIECAAAECBAgQINA8gXJa1V8/bF6NaiJAgAABAgQIECBAILcCXV1daezVRGFRd247InACBAgQIECAAAECBJonMDIyklZW3aNQ+mLzalYTAQIECBAgQIAAAQK5F7CZOfdDqAMECBAgQIAAAQIEmi8gUWi+qRoJECBAgAABAgQI5F5AopD7IdQBAgQIECBAgAABAs0XkCg037Ra43svx7r1L8eRVtWvXgIEWidg/rbOVs0ECBAgkBuBxVct742e5ctzE3AhAx06EI9IKgo5tDpVVIGz8UZ/b6xbX/t+5MDZonZWvwgQIEBggQq4ozA28J34BDFtszfW9e2Md8fi8C8BAnMXaPf8fW9ffPCDwTh5fPR74LmIJ/vihffmHrozCBAgQIBAVgUkCh0bmaPxwoP7ov/1wTj5+raORaFhAgTmIXDr4/GjW+vO67kvftgfsffQ0bqDXhIgQIAAgXwLSBQi4siu3lj34L6I2Bf3p0sElGLKAAAQuElEQVQJansLhg9sn3F5QXpu3fKDaT9RTJcX9ca6/gMxnP7ObI4fHR8cf7GR798l0RPoiEBn5m9HuqpRAgQIECDQVoHqX2Zua5PZa+yWHYNx8s6XY92DEW8efzxuuRzi0fiXE9vj5PGfVo8kF/t9ffHC2uoFfpJE3H/8ufjN8ftidVLivZfjhcvn1r84Gi/07Yx4cSBO3req/g2vCRBoUCAb8/dovLU3ov/1zQ32xukECBAgQKDzAqVSKQ1CojDjWGyOH+2oK9Bze9zbF/HWqbMRt66KD08MRKzfXk0SkmLJcoS64tWXR+OF9Q/F3v7XJAmTbBwg0EqBds3fZGPzQ7G377n4Tf1ypFZ2Td0ECBAgQKANApYezYqcXOiPPdmkL54YqJ1wy8PPxR17H4p167fHG0O147VXJ+InyQVEkiTs8EljzcUrAu0SaPH8TZcU9sUT61+Lk3tH7yy2q2vaIUCAAAECLRKoVCqRfEsUZgCu7k94KCLZcJw+3WQgXuqrO6HnvnglOf76DfFEX5JMTJMwHD8xui+h7lwvCRBoqUDL52/ypKW+nXFj8v+DDwJaOpYqJ0CAAIHOCEgUpnU/G7/614G448WB2Tcc3/p4nDyeJBED8dav65+lfkP8cO9AvBQ747bLm5inbdAbBAg0TaDF8zdJEh48ES8NeCBB04ZMRQQIECCQOQGJwtiQrFkXd8SJ+ODyEqJVceP6iHdP/GGsRAwfeHrc0qMju2pPR7pcaNKLVfFdycIkFQcINFWgzfP3yKF9cceL/xzf7WlqL1RGgAABAgQyJSBRGBuO9DnoA6NLiKoJwC07Xov+dA9CdY/CP8X28UuPLj9ONXm/L976zkC8MuVTjZJk4bXoH9gZt023PGksDv8SIDB3gbbO37PxwfGId5/sG/fo5OpfaZ5m+eHce+QMAgQIECDQcYFF27dvv5REsWfPno4HcyUBnDp1KtauXXslRZUhQGAKgU7OoU62PQWFQwRyJ2AO5W7IBEwglwIbNmxI43ZHIZfDJ2gCBAgQIECAAAECrRWQKLTWV+0ECBAgQIAAAQIEcikgUcjlsAmaAAECBAgQIECAQGsFJAqt9VU7AQIECBAgQIAAgVwKlHMZtaAJECBAgAABAgQIEGiJQKlUSut1R6ElvColQIAAAQIECBAgkG8BdxTyPX6iJ0CAAAECBAgQINBUgUqlktZX/uz0n+PChabWrTICBAgQIECAAAECBHIuUL4Qy2LF2qU574bwCRAgQIAAAQIECBBopsDipddJEpoJqi4CBAgQIECAAAECRRAoXzj157DyqAhDqQ8ECBAgQIAAAQIEmidQ7lp7bdjR3DxQNREgQIAAAQIECBAogsDiixeL0A19IECAAAECBAgQIECgmQKLLw6PxF+bWaO6CBAgQIAAAQIECBDIvUB5SXwWI6c+y31HdIAAAQIECBAgQIAAgeYJlJetuTaWNa8+NREgQIAAAQIECBAgUAAB+5gLMIi6QIAAAQIECBAgQKBZAqVSKa1qcbMqVA8BAgQIECBAgAABAsURcEehOGOpJwQIECBAgAABAgQaFqhUKmkd7ig0TKkCAgQIECBAgAABAsUTkCgUb0z1iAABAgQIECBAgEDDAhKFhglVQIAAAQIECBAgQKB4AhKF4o2pHhEgQIAAAQIECBBoWECi0DChCggQIECAAAECBAgUT0CiULwx1SMCBAgQIECAAAECDQtIFBomVAEBAgQIECBAgACB4glIFIo3pnpEgAABAgQIECBAoGEBiULDhCogQIAAAQIECBAgUDwBf5l5dEyHD2yP254cmDzC/a/FyR2bJx93hACBzAiYv5kZCoEQIECAQIEE3FGoH8y+5+I3xwfj5OXvgXjp+EOxbv32eGOovqDXBAhkTsD8zdyQCIgAAQIE8inQ1dUVybdEYcbxWxXf3TsYb/YPxBNPH4jhGct6kwCBbAmYv9kaD9EQIECAQF4ERkZGIvmWKFzBiN3y8HNxx8Av4lfj7iocjRfW98a6y98T7joMHYhH0jsR48s9cuDspBaP7JqhnkmlHSBAYC4C5u9ctJQlQIAAAQI1AYlCzWL6Vz03xI0xEB/8cbRImgQ8FB+8OFBbpvT6DfFEX2+88F59NQPxRN8v4t6xpUyvb4t3n3x63DKmJEm4P16bUM+EpKO+Sq8JEJibgPk7Ny+lCRAgQIDAqMDiTz4ejKFzg0BmFPha3NhXK3Dk1Z3xbv9r8cp9q2oHb3083uyP2HvoaO1YRPS//njcMnbk1m3xUt9AvPXr0bsKQwfiJ3u3xZv1m6Unlhk7178ECMxTwPydJ5zTCBAgQGCBC5Q/juujZ+XyBc4wW/f/EB8kD0T6QVLubHxwPKL/B5OfhHTLndsi9pyI4dgcq9Mq++LGNTPU/ceT8W7si3fX75tU6I7vTDrkAAEC8xIwf+fF5iQCBAgQWPAC5eXLJQmz/hYMnYgPYlv88NZZS869QPKklr33jSYWcz/dGQQIzCJg/s4C5G0CBAgQIDC1wOKPz1l6NDXN2NGz8cbTOyNe3Da6hGhV3Lh+8hKjpPSRQ/si1t9w5Rf9a9ZNsUl6rF3/EiDQuID527ihGggQIEBgoQosvmZlb/Ss7F2o/Z+53+mm5b54Yv34/QjpU1T2PhTjnmD03stx/96+eOnhyUuSpm2k5/a4t2/yo1eP7Ho5jkx7kjcIELgiAfP3ipgUIkCAAAEC0wmUP/08YskXpnt7gR0f2Bm3rd9Z1+m+eGlgMF7pqTuUvOy5L14ZiHikry/WPTn23rZ48/hPaxuXxw7P+G/ynPeBiP6+ce3e8eJAvDLjed4kQGCSgPk7icQBAgQIECDQiMCif3zg/kvXrFgVP9uzp5F62nbuqVOnYu3atW1rT0MEiibQyTnUybaLNo76szAFzKGFOe56TaDdAhs2bEibLH8pzsRfzp1pd/vaI0CAAAECBAgQIEAggwKlUimNqrxihf0JGRwfIREgQIAAAQIECBDoqEC5o61rnAABAgQIECBAgACBTAlUKpU0nsWZikowBAgQIECAAAECBAhkQkCikIlhEAQBAgQIECBAgACBbAlIFLI1HqIhQIAAAQIECBAgkAkBiUImhkEQBAgQIECAAAECBLIlIFHI1niIhgABAgQIECBAgEAmBCQKmRgGQRAgQIAAAQIECBDIloBEIVvjIRoCBAgQIECAAAECmRCQKGRiGARBgAABAgQIECBAIFsCEoVsjYdoCBAgQIAAAQIECGRCwF9mzsQwCIIAAQIECBAgQIBANgRKpVIaiDsK2RgPURAgQIAAAQIECBDIlIA7CpkaDsEQIECAAAECBAgQ6KxApVJJA3BHobPjoHUCBAgQIECAAAECmRSQKGRyWARFgAABAgQIECBAoLMCEoXO+mudAAECBAgQIECAQCYFJAqZHBZBESBAgAABAgQIEOisgEShs/5aJ0CAAAECBAgQIJBJgfLhw4cjYk0mgxMUAQIECBAgQIAAAQKdEShv2bIl4uLpzrSuVQIECBAgQIAAAQIEMilQXXq05LpMBjdVUIsWLYq//e1vU73lGAECswgkcyeZQ536Mn87Ja/dIgh0ev4WwVAfCBCYm0Du9igsXbo0Lly4MLdeKk2AQCqQzJ1kDnXqy/ztlLx2iyDQ6flbBEN9IEBgbgK5SxRWrFgR586di08++STG/mrc3LqsNIGFJ5DMlZGRkXTuJHOoU1/mb6fktZtngazM3zwbip0AgbkJlEqlSL7Lczut86WXLFkS3d3dcf78+Th79mxcunSp80GJgEDGBZIlP8mn+cncSeZQp77M307JazfPAlmZv3k2FDsBAvMTqCYKOdvMPHaxMb8uO4sAgU4KmL+d1Nc2AQIECBCYXWBs1U718agrb5r9DCUIECBAgAABAgQIEFgwAtXHoy6Y7uooAQIECBAgQIAAAQJXIpC7zcxX0illCBAgQIAAAQIECBBoTECi0JifswkQIECAAAECBAgUUkCiUMhh1SkCBAgQIECAAAECjQlIFBrzczYBAgQIECBAgACBQgpIFAo5rDpFgAABAgQIECBAoDEBiUJjfs4mQIAAAQIECBAgUEgBiUIhh1WnCBAgQIAAAQIECDQmIFFozM/ZBAgQIECAAAECBAopUC5kr3SKAAECBAgQIECAAIF5CXR1daXnSRTmxeckAgQIECBAgAABAsUUGBkZSTtm6VExx1evCBAgQIAAAQIECDQkIFFoiM/JBAgQIECAAAECBIopIFEo5rjqFQECBAgQIECAAIGGBCQKDfE5mQABAgQIECBAgEAxBSQKxRxXvSJAgAABAgQIECDQkIBEoSE+JxMgQIAAAQIECBAopoBEoZjjqlcECBAgQIAAAQIEGhIoHz58OCKuaagSJxMgQIAAAQIECBAgUCyB8pYtWyI++t9i9UpvCBAgQIAAAQIECBBoSKD6l5mvXtNQJU4mQIAAAQIECBAgQKAYAqVSKe3I6NKjYnRKLwgQIECAAAECBAgQaI5AdelRc+pSCwECBAgQIECAAAECOReoVCppDzz1KOcDKXwCBAgQIECAAAECrRCQKLRCVZ0ECBAgQIAAAQIEci5gj0LOB1D4BAgQIECAAAECBFohYI9CK1TVSYAAAQIECBAgQCDnApYe5XwAhU+AAAECBAgQIECgFQIShVaoqpMAAQIECBAgQIBAzgUkCjkfQOETIECAAAECBAgQaIWARKEVquokQIAAAQIECBAgkHMBiULOB1D4BAgQIECAAAECBFohUG5FpeokQIAAAQIECBAgQCCfAqVSKQ3cHYV8jp+oCRAgQIAAAQIECLRUwB2FlvKqnAABAgQIECBAgEC+BCqVShqwOwr5GjfREiBAgAABAgQIEGiLgEShLcwaIUCAAAECBAgQIJAvAYlCvsZLtAQIECBAgAABAgTaIiBRaAuzRggQIECAAAECBAjkS0CikK/xEi0BAgQIECBAgACBtghIFNrCrBECBAgQIECAAAEC+RKQKORrvERLgAABAgQIECBAoC0CEoW2MGuEAAECBAgQIECAQL4EJAr5Gi/REiBAgAABAgQIEGiLQPnw4cMRsaYtjWmEAAECBAgQIECAAIFsC5RKpTTA8pYtWyIuns52tKIjQIAAAQIECBAgQKCtAuW0tSXXtbVRjREgQIAAAQIECBAgkE2BSqWSBmaPQjbHR1QECBAgQIAAAQIEOiogUegov8YJECBAgAABAgQIZFNAopDNcREVAQIECBAgQIAAgY4KVBMFm5k7OggaJ0CAAAECBAgQIJA1gerjUVfelLW4xEOAAAECBAgQIECAQAcFqo9H7WAAmiZAgAABAgQIECBAIHsC9ihkb0xERIAAAQIECBAgQKDjAmmicPH0YMcDEQABAgQIECBAgAABAtkRqO5RiGuyE5FICBAgQIAAAQIECBDouIA9Ch0fAgEQIECAAAECBAgQyJ5AOXshiYgAAQIECBAgQIAAgU4JdHV1pU1LFDo1AtolQIAAAQIECBAgkEGBkZGRNCpPPcrg4AiJAAECBAgQIECAQKcFyp9//nmnY9A+AQIECBAgQIAAAQIZE1j0/e9//1LGYhIOgcIJHD58uHB90iECBGYWWL5iRXx8/vzMhWZ4t9HzZ6jaWwTmLTCX38tSqZS2U6lUrqi9VpdPgrj66qvjo48+ykQ8c+1vJ+K39OiKflUUIkCAAAECBAgQILCwBP4fDqnCuEdKVywAAAAASUVORK5CYII=;" vertex="1" parent="1">
                    <mxGeometry x="120" y="30" width="588" height="272.84" as="geometry"/>
                </mxCell>
                <mxCell id="3" value="" style="shape=cylinder;whiteSpace=wrap;html=1;boundedLbl=1;backgroundOutline=1;" vertex="1" parent="1">
                    <mxGeometry x="358" y="420" width="111" height="110" as="geometry"/>
                </mxCell>
                <mxCell id="8" value="Repository" style="text;html=1;strokeColor=none;fillColor=none;align=center;verticalAlign=middle;whiteSpace=wrap;rounded=0;" vertex="1" parent="1">
                    <mxGeometry x="394" y="540" width="40" height="20" as="geometry"/>
                </mxCell>
                <mxCell id="9" value="①&lt;br&gt;Repositoryにあるタスク一覧を表示" style="text;html=1;strokeColor=none;fillColor=none;align=center;verticalAlign=middle;whiteSpace=wrap;rounded=0;" vertex="1" parent="1">
                    <mxGeometry x="150" y="380" width="140" height="20" as="geometry"/>
                </mxCell>
                <mxCell id="10" value="②&lt;br&gt;Addを押すと新しいタスクをRepositoryに登録" style="text;html=1;strokeColor=none;fillColor=none;align=center;verticalAlign=middle;whiteSpace=wrap;rounded=0;" vertex="1" parent="1">
                    <mxGeometry x="600" y="350" width="140" height="60" as="geometry"/>
                </mxCell>
                <mxCell id="11" value="③&lt;br&gt;各タスクのDoneを押すとRepositoryから削除" style="text;html=1;strokeColor=none;fillColor=none;align=center;verticalAlign=middle;whiteSpace=wrap;rounded=0;" vertex="1" parent="1">
                    <mxGeometry x="440" y="310" width="140" height="60" as="geometry"/>
                </mxCell>
                <mxCell id="14" value="" style="curved=1;endArrow=classic;html=1;exitX=-0.001;exitY=0.241;exitDx=0;exitDy=0;exitPerimeter=0;" edge="1" parent="1" source="3">
                    <mxGeometry width="50" height="50" relative="1" as="geometry">
                        <mxPoint x="280" y="410" as="sourcePoint"/>
                        <mxPoint x="220" y="310" as="targetPoint"/>
                        <Array as="points">
                            <mxPoint x="330" y="410"/>
                            <mxPoint x="280" y="360"/>
                        </Array>
                    </mxGeometry>
                </mxCell>
                <mxCell id="15" value="" style="curved=1;endArrow=classic;html=1;entryX=0.637;entryY=0.036;entryDx=0;entryDy=0;entryPerimeter=0;exitX=0.459;exitY=0.77;exitDx=0;exitDy=0;exitPerimeter=0;" edge="1" parent="1" source="2" target="3">
                    <mxGeometry width="50" height="50" relative="1" as="geometry">
                        <mxPoint x="420" y="380" as="sourcePoint"/>
                        <mxPoint x="470" y="330" as="targetPoint"/>
                        <Array as="points">
                            <mxPoint x="470" y="380"/>
                        </Array>
                    </mxGeometry>
                </mxCell>
                <mxCell id="16" value="" style="curved=1;endArrow=classic;html=1;exitX=0.952;exitY=0.476;exitDx=0;exitDy=0;exitPerimeter=0;entryX=1;entryY=0.7;entryDx=0;entryDy=0;" edge="1" parent="1" source="2" target="3">
                    <mxGeometry width="50" height="50" relative="1" as="geometry">
                        <mxPoint x="500" y="490" as="sourcePoint"/>
                        <mxPoint x="460" y="580" as="targetPoint"/>
                        <Array as="points">
                            <mxPoint x="550" y="490"/>
                        </Array>
                    </mxGeometry>
                </mxCell>
            </root>
        </mxGraphModel>
    </diagram>
</mxfile>